<svg  width="32" height="32" xmlns="http://www.w3.org/2000/svg">    
    <path class="theme-secondary" fill="#f4177f" d="M21 4a.6.6 0 01.5.7l-6.8 23.2a.6.6 0 01-.7.4l-3-1a.6.6 0 01-.4-.6l6.7-23.2a.6.6 0 01.8-.4z" />
    <path class="theme-primary" fill="#562bbd" d="M31.6 15.2l-7-6.6a.6.6 0 00-1 0l-2 2.3a.6.6 0 000 .8l4.4 4-4.4 3.9a.6.6 0 000 .8l2 2.3a.6.6 0 001 0l7-6.6a.6.6 0 000-.9zm-21-4.3L8.3 8.6a.6.6 0 00-.9 0l-7 6.6a.6.6 0 000 .9l7 6.7a.6.6 0 00.9 0l2.1-2.4a.6.6 0 000-.8l-4.5-4 4.5-3.9a.6.6 0 000-.8z" />
</svg>
